<?xml version="1.0" standalone="no"?>
<!DOCTYPE svg PUBLIC "-//W3C//DTD SVG 20010904//EN"
 "http://www.w3.org/TR/2001/REC-SVG-20010904/DTD/svg10.dtd">
<svg version="1.0" xmlns="http://www.w3.org/2000/svg"
 width="1000.000000pt" height="500.000000pt" viewBox="0 0 1000.000000 500.000000"
 preserveAspectRatio="xMidYMid meet">

<g transform="translate(0.000000,500.000000) scale(0.100000,-0.100000)"
fill="#000000" stroke="none">
<path d="M0 2500 l0 -2500 5000 0 5000 0 0 2500 0 2500 -5000 0 -5000 0 0
-2500z m4515 1190 c3 -5 -3 -10 -14 -10 -12 0 -21 -7 -21 -15 0 -8 7 -15 15
-15 8 0 15 -4 15 -10 0 -5 -7 -10 -15 -10 -8 0 -15 -7 -15 -15 0 -8 -7 -15
-15 -15 -11 0 -15 12 -15 50 0 49 1 50 29 50 17 0 33 -4 36 -10z m86 -6 c10
-13 10 -20 0 -36 -9 -15 -9 -23 0 -34 9 -11 9 -14 -1 -14 -7 0 -19 8 -26 18
-13 16 -13 16 -14 0 0 -10 -7 -18 -15 -18 -11 0 -15 12 -15 50 0 48 1 50 29
50 16 0 34 -7 42 -16z m113 0 c41 -40 -4 -105 -57 -85 -16 6 -29 21 -33 36
-13 50 53 86 90 49z m81 -14 c8 -37 25 -40 25 -5 0 23 24 45 35 33 3 -3 8 -26
11 -51 5 -32 3 -47 -5 -47 -6 0 -11 9 -11 19 0 30 -17 34 -24 6 -7 -29 -36
-34 -36 -6 0 11 -4 23 -10 26 -6 4 -10 -5 -10 -19 0 -15 -6 -26 -13 -26 -12 0
-13 52 -2 88 8 23 33 12 40 -18z m-140 -130 c0 -10 -12 -16 -33 -18 -40 -4
-38 -27 1 -27 19 1 27 -4 27 -17 0 -13 -8 -18 -31 -18 -41 0 -33 -24 9 -28 20
-2 32 -9 32 -18 0 -10 -13 -14 -50 -14 l-50 0 0 81 0 80 48 -3 c34 -2 47 -7
47 -18z m123 4 c24 -17 28 -44 10 -74 -10 -15 -9 -22 5 -38 22 -24 21 -32 -2
-32 -10 0 -27 12 -37 28 l-18 27 -6 -25 c-3 -14 -14 -26 -23 -28 -15 -3 -17 6
-17 71 0 40 3 77 7 80 12 12 58 7 81 -9z m179 -61 c26 -66 28 -79 15 -82 -9
-2 -21 4 -27 13 -15 20 -71 21 -79 1 -6 -16 -36 -21 -36 -6 0 5 7 25 15 45 8
20 22 52 29 71 25 59 48 47 83 -42z m131 54 c3 -14 -1 -17 -21 -12 -39 10 -40
-11 -2 -34 61 -35 38 -97 -33 -89 -17 2 -28 10 -30 21 -3 16 1 18 26 12 44 -9
49 12 8 32 -28 13 -36 23 -36 43 0 14 6 32 12 38 19 19 72 11 76 -11z m113
-32 c10 -27 18 -48 19 -45 1 3 7 25 13 50 9 34 17 46 34 48 25 4 29 -6 38 -95
6 -52 4 -63 -8 -63 -15 0 -27 29 -27 69 0 32 -12 19 -25 -27 -16 -55 -42 -54
-57 2 -15 57 -26 59 -30 4 -2 -32 -8 -44 -21 -46 -15 -3 -17 3 -12 55 10 96
13 105 37 101 16 -2 26 -17 39 -53z m169 2 c0 -55 12 -77 42 -77 16 0 18 9 18
66 0 55 3 65 16 62 22 -4 28 -144 6 -153 -28 -10 -76 -5 -94 12 -24 22 -27
143 -3 143 11 0 15 -13 15 -53z m208 30 c3 -15 -1 -17 -22 -11 -38 9 -34 -21
4 -35 25 -8 30 -16 30 -41 0 -36 -33 -56 -74 -46 -38 9 -35 37 3 30 42 -9 46
11 6 35 -58 34 -41 95 25 88 15 -1 26 -9 28 -20z m-524 -196 c3 -5 -3 -11 -14
-14 -16 -4 -20 -14 -20 -46 0 -23 -4 -41 -10 -41 -5 0 -10 20 -10 45 0 33 -4
45 -15 45 -8 0 -15 5 -15 10 0 12 77 13 84 1z m100 -7 c35 -35 11 -94 -38 -94
-20 0 -56 35 -56 55 0 21 36 55 59 55 11 0 27 -7 35 -16z m-936 -156 c-3 -31
-4 -31 -58 -32 -51 -1 -55 -3 -55 -25 0 -22 4 -24 50 -25 47 -1 50 -3 53 -28
3 -26 1 -27 -50 -30 -46 -3 -53 -6 -56 -25 -3 -22 0 -23 57 -23 l61 0 0 -30 0
-30 -95 0 -95 0 0 140 0 140 96 0 95 0 -3 -32z m201 17 c33 -17 41 -33 41 -83
0 -23 -8 -44 -22 -59 l-21 -23 31 -44 c18 -24 32 -47 32 -50 0 -3 -17 -6 -37
-6 -34 0 -41 5 -66 45 -16 25 -33 45 -38 45 -5 0 -9 -20 -9 -45 0 -45 0 -45
-35 -45 l-35 0 0 140 0 140 65 0 c38 0 78 -6 94 -15z m257 9 c17 -4 33 -34 70
-132 27 -69 51 -129 52 -134 2 -4 -14 -8 -36 -8 -34 0 -41 4 -46 25 -6 23 -11
25 -65 25 -54 0 -59 -2 -65 -25 -5 -21 -12 -25 -41 -25 -19 0 -35 4 -35 10 0
5 19 60 43 122 24 62 46 121 50 131 6 17 34 22 73 11z m288 -4 c20 -7 26 -16
26 -41 0 -26 -3 -30 -17 -24 -32 14 -81 17 -88 6 -10 -18 10 -36 55 -50 45
-13 60 -34 60 -85 0 -63 -64 -99 -141 -79 -30 8 -34 13 -37 46 l-3 36 28 -14
c36 -19 67 -19 83 0 16 19 6 32 -30 40 -49 11 -80 42 -80 81 0 20 5 44 11 55
18 35 81 49 133 29z m890 0 c20 -7 26 -16 26 -41 0 -26 -3 -30 -17 -24 -32 14
-81 17 -88 6 -10 -18 10 -36 55 -50 45 -13 60 -34 60 -85 0 -62 -65 -98 -141
-79 -30 8 -34 13 -37 46 l-3 36 28 -14 c35 -19 67 -19 82 -1 14 16 3 27 -49
48 -41 17 -56 33 -64 68 -17 69 68 121 148 90z m-674 -77 c12 -43 25 -82 28
-88 4 -5 18 28 32 75 l27 85 41 3 c47 4 44 10 62 -128 6 -47 13 -97 16 -112 5
-26 3 -28 -30 -28 -34 0 -35 1 -41 48 -4 26 -10 63 -14 82 -7 34 -8 33 -32
-45 -25 -79 -25 -80 -58 -80 -33 0 -34 1 -55 72 -12 39 -24 74 -28 78 -3 3 -9
-22 -13 -57 -10 -94 -12 -98 -49 -98 l-33 0 18 123 c10 67 19 128 19 135 0 8
16 12 44 12 l43 0 23 -77z m320 -21 c0 -109 6 -122 57 -122 l33 0 0 110 0 110
35 0 35 0 0 -130 c0 -150 5 -143 -95 -144 -69 -1 -107 14 -124 51 -6 13 -11
69 -11 123 l0 100 35 0 35 0 0 -98z m540 18 c0 -27 3 -30 30 -30 25 0 30 -4
30 -25 0 -21 -5 -25 -30 -25 -27 0 -30 -3 -30 -30 0 -25 -4 -30 -25 -30 -21 0
-25 5 -25 30 0 27 -3 30 -30 30 -25 0 -30 4 -30 25 0 21 5 25 30 25 27 0 30 3
30 30 0 25 4 30 25 30 21 0 25 -5 25 -30z m-1256 -256 c24 -9 19 -24 -6 -24
-22 0 -22 -1 5 -23 19 -15 26 -28 22 -39 -9 -22 -40 -29 -62 -12 -17 12 -16
13 10 14 33 0 35 12 5 25 -28 13 -33 29 -13 49 19 18 18 18 39 10z m224 -17
c15 -12 16 -59 0 -75 -20 -20 -76 -15 -88 9 -32 58 34 108 88 66z m92 13 c13
0 20 -31 11 -48 -6 -11 -6 -24 0 -35 8 -13 6 -17 -6 -17 -9 0 -18 7 -21 15 -4
8 -10 15 -15 15 -5 0 -9 -7 -9 -15 0 -8 -4 -15 -10 -15 -5 0 -10 22 -10 49 0
49 10 64 38 55 8 -2 17 -4 22 -4z m240 0 c54 -29 40 -100 -20 -100 -59 0 -74
69 -22 99 21 13 20 13 42 1z m-671 -37 c8 -21 16 -44 18 -50 3 -7 -2 -13 -11
-13 -9 0 -16 5 -16 10 0 6 -9 10 -19 10 -11 0 -23 -4 -26 -10 -3 -5 -13 -10
-20 -10 -11 0 -12 6 -5 25 6 14 14 36 20 50 15 38 44 32 59 -12z m231 27 c0
-5 -7 -10 -15 -10 -11 0 -15 -11 -15 -40 0 -22 -4 -40 -10 -40 -5 0 -10 18
-10 40 0 28 -4 40 -14 40 -8 0 -18 5 -21 10 -4 6 12 10 39 10 25 0 46 -4 46
-10z m266 -7 c12 -17 13 -17 19 0 4 9 14 17 21 17 12 0 12 -5 -1 -30 -8 -16
-15 -38 -15 -50 0 -32 -24 -24 -36 13 -6 17 -14 40 -19 50 -4 11 -3 17 5 17 7
0 19 -8 26 -17z m294 7 c0 -5 -9 -10 -20 -10 -11 0 -20 -4 -20 -10 0 -5 7 -10
15 -10 8 0 15 -7 15 -15 0 -8 -7 -15 -15 -15 -8 0 -15 -7 -15 -15 0 -8 -7 -15
-15 -15 -11 0 -15 12 -15 50 l0 50 35 0 c19 0 35 -4 35 -10z m-860 -150 c26
-26 26 -72 0 -95 -19 -17 -19 -18 2 -35 24 -19 29 -70 9 -94 -23 -27 -79 -40
-122 -27 -34 10 -39 16 -39 42 0 26 3 30 18 23 9 -4 33 -8 52 -8 48 -1 55 30
11 47 -38 14 -44 54 -8 59 14 2 23 11 25 26 4 30 -20 38 -58 19 l-30 -15 0 33
c0 38 8 43 73 44 34 1 52 -4 67 -19z m229 -8 c52 -52 50 -171 -4 -222 -33 -31
-94 -33 -126 -5 -65 58 -64 193 2 239 38 26 96 21 128 -12z m966 3 c54 -22 70
-89 30 -129 -20 -20 -19 -27 10 -66 32 -43 31 -50 -5 -50 -23 0 -35 9 -60 45
-17 25 -35 43 -41 40 -5 -4 -9 -24 -9 -46 0 -38 -2 -40 -27 -37 l-28 3 -3 122
c-4 120 -3 121 20 126 47 9 79 7 113 -8z m204 4 c25 -9 31 -16 31 -39 0 -29 0
-29 -34 -15 -28 12 -36 12 -52 0 -23 -17 -13 -28 39 -45 41 -13 57 -34 57 -78
0 -50 -56 -81 -125 -68 -31 6 -35 10 -35 38 0 25 3 29 18 22 9 -4 31 -8 47 -8
44 -1 41 33 -4 49 -37 12 -71 48 -71 74 0 35 46 78 86 80 6 1 25 -4 43 -10z
m-988 -44 c13 -25 26 -45 29 -45 3 0 13 20 23 45 17 41 22 45 53 45 19 0 34
-2 34 -4 0 -2 -17 -33 -37 -68 -25 -43 -38 -80 -42 -118 -6 -53 -7 -55 -36
-55 -29 0 -30 2 -27 38 3 29 -6 55 -43 122 l-46 85 34 0 c30 0 37 -5 58 -45z
m339 20 c0 -24 -3 -25 -56 -25 -52 0 -55 -1 -52 -22 3 -20 10 -23 51 -26 42
-3 47 -5 47 -28 0 -22 -4 -24 -50 -24 -43 0 -50 -3 -50 -20 0 -18 7 -20 55
-20 55 0 55 0 55 -30 l0 -31 -82 3 -83 3 -3 123 -3 122 86 0 c84 0 85 0 85
-25z m236 -94 c24 -62 44 -117 44 -122 0 -5 -13 -9 -30 -9 -23 0 -31 5 -36 25
-6 23 -11 25 -60 25 -49 0 -55 -3 -64 -25 -7 -19 -17 -25 -41 -25 -17 0 -29 4
-27 8 2 5 23 61 48 126 l45 117 39 -3 38 -3 44 -114z m641 -1002 c14 -14 6
-39 -12 -39 -18 0 -28 17 -21 35 6 18 18 19 33 4z m-2537 -19 c0 -17 -7 -20
-50 -20 -47 0 -50 -2 -50 -25 0 -23 3 -25 50 -25 43 0 50 -3 50 -20 0 -17 -7
-20 -50 -20 -47 0 -50 -2 -50 -25 0 -23 3 -25 50 -25 43 0 50 -3 50 -20 0 -18
-7 -20 -75 -20 l-75 0 0 110 0 110 75 0 c68 0 75 -2 75 -20z m1510 -5 c18 -17
19 -19 3 -30 -13 -10 -22 -9 -44 4 -22 12 -32 13 -53 3 -30 -13 -50 -55 -40
-84 9 -28 50 -51 79 -44 33 8 33 36 0 36 -18 0 -25 5 -25 20 0 17 7 20 50 20
l50 0 0 -43 c0 -37 -4 -45 -29 -60 -93 -55 -204 29 -171 129 16 49 62 76 118
71 24 -3 52 -13 62 -22z m933 -11 c-4 -10 1 -17 16 -21 24 -6 28 -28 7 -40
-23 -14 -26 -62 -4 -83 24 -22 16 -40 -16 -40 -34 0 -46 19 -46 72 0 26 -4 48
-10 48 -5 0 -10 9 -10 20 0 11 5 20 10 20 6 0 10 9 10 20 0 15 7 20 25 20 18
0 23 -4 18 -16z m-1273 -34 c0 -25 4 -30 25 -30 16 0 25 -6 25 -15 0 -9 -9
-15 -25 -15 -21 0 -25 -5 -25 -30 0 -20 -5 -30 -15 -30 -10 0 -15 10 -15 30 0
27 -3 30 -30 30 -20 0 -30 5 -30 15 0 10 10 15 30 15 27 0 30 3 30 30 0 20 5
30 15 30 10 0 15 -10 15 -30z m-1090 -2 c0 -9 3 -9 12 0 18 18 38 14 38 -7 0
-13 -8 -21 -22 -23 -20 -3 -23 -10 -26 -60 -3 -50 -6 -58 -22 -58 -18 0 -20 7
-20 80 0 73 2 80 20 80 11 0 20 -5 20 -12z m190 -8 c15 -15 20 -33 20 -79 l0
-58 -60 -1 c-53 -1 -62 2 -76 23 -28 43 13 84 70 69 30 -7 36 10 9 25 -11 5
-26 5 -42 0 -31 -12 -49 10 -24 29 26 19 80 15 103 -8z m159 11 c8 -5 11 -16
8 -25 -5 -13 -11 -14 -32 -4 -19 9 -28 9 -37 0 -8 -8 -7 -13 8 -17 68 -21 91
-56 59 -89 -20 -19 -74 -21 -100 -3 -27 20 -11 39 22 26 28 -10 53 -6 53 9 0
5 -14 12 -32 16 -57 11 -74 42 -41 78 17 19 68 24 92 9z m91 0 c0 -5 14 -4 30
2 23 9 35 9 50 -1 15 -9 24 -9 38 -1 11 7 31 9 45 5 29 -7 39 -38 36 -110 -2
-41 -5 -46 -26 -46 -22 0 -23 4 -23 61 0 57 -1 60 -22 57 -20 -3 -23 -10 -26
-60 -3 -54 -5 -58 -27 -58 -24 0 -25 3 -25 61 0 57 -1 60 -22 57 -20 -3 -23
-10 -26 -60 -3 -50 -6 -58 -22 -58 -18 0 -20 7 -20 80 0 73 2 80 20 80 11 0
20 -4 20 -9z m276 -31 c2 -81 2 -82 32 -78 26 3 27 6 30 61 3 49 6 57 22 57
18 0 20 -7 20 -80 0 -73 -2 -80 -20 -80 -11 0 -20 5 -20 10 0 7 -6 7 -19 0
-59 -31 -91 -1 -91 86 0 62 1 65 23 62 18 -2 22 -10 23 -38z m243 31 c8 -5 11
-16 8 -25 -5 -13 -11 -14 -32 -4 -19 9 -28 9 -37 0 -8 -8 -7 -13 8 -17 68 -21
91 -56 59 -89 -20 -19 -74 -21 -100 -3 -28 21 -11 38 26 25 22 -7 34 -7 41 0
8 8 3 14 -18 22 -64 23 -79 47 -48 81 18 20 68 25 93 10z m646 -16 c14 -13 25
-36 25 -50 0 -24 -3 -25 -57 -25 -54 -1 -57 -2 -38 -16 12 -9 30 -12 46 -9 33
7 47 -10 20 -24 -52 -28 -131 8 -131 59 0 77 84 117 135 65z m95 15 c0 -7 6
-7 19 0 59 31 91 1 91 -86 0 -62 -1 -64 -25 -64 -24 0 -25 3 -25 61 0 60 0 60
-27 57 -27 -3 -28 -6 -31 -60 -3 -50 -6 -58 -22 -58 -18 0 -20 7 -20 80 0 73
2 80 20 80 11 0 20 -5 20 -10z m267 -12 c12 -13 23 -34 25 -48 3 -24 0 -25
-57 -30 -53 -4 -58 -6 -39 -17 12 -7 34 -11 49 -10 42 3 42 -21 0 -29 -48 -9
-91 11 -104 47 -18 52 21 109 74 109 20 0 39 -8 52 -22z m148 5 c2 -8 -5 -17
-19 -23 -28 -10 -33 -22 -31 -77 2 -39 0 -43 -22 -43 -22 0 -23 3 -23 80 l0
80 45 -2 c26 -2 47 -8 50 -15z m139 1 c11 -11 16 -35 16 -79 l0 -63 -52 0
c-65 0 -88 11 -88 43 0 32 39 58 74 49 19 -4 26 -2 26 9 0 21 -27 29 -52 16
-30 -16 -50 7 -24 27 26 19 81 18 100 -2z m206 -64 c0 -73 -2 -80 -20 -80 -18
0 -20 7 -20 80 0 73 2 80 20 80 18 0 20 -7 20 -80z m166 57 c20 -17 27 -33 27
-57 0 -69 -89 -105 -138 -55 -74 74 32 180 111 112z m192 11 c7 -7 12 -36 12
-79 0 -62 -2 -69 -20 -69 -16 0 -19 8 -22 58 -3 53 -5 57 -28 57 -23 0 -25 -4
-28 -57 -3 -54 -5 -58 -27 -58 -24 0 -25 2 -25 79 l0 79 63 0 c34 0 68 -5 75
-10z m-3452 -389 c5 -8 -1 -10 -19 -5 -40 10 -41 -10 -1 -33 36 -22 40 -37 12
-54 -18 -12 -71 -1 -63 13 4 6 14 5 25 -2 15 -9 22 -10 31 -1 15 15 3 33 -22
33 -22 0 -34 22 -25 45 6 18 52 20 62 4z m44 -3 c0 -8 10 -16 23 -18 18 -2 23
-10 25 -40 2 -22 -1 -38 -7 -38 -6 0 -11 16 -11 36 0 45 -24 42 -28 -4 -5 -53
-22 -36 -22 23 0 30 5 55 10 55 6 0 10 -6 10 -14z m260 4 c0 -5 -5 -10 -11
-10 -5 0 -7 5 -4 10 3 6 8 10 11 10 2 0 4 -4 4 -10z m310 -4 c0 -8 10 -16 23
-18 18 -2 23 -10 25 -40 2 -22 -1 -38 -7 -38 -6 0 -11 16 -11 36 0 45 -24 42
-28 -4 -5 -53 -22 -36 -22 23 0 30 5 55 10 55 6 0 10 -6 10 -14z m233 7 c-20
-7 -15 -23 6 -23 15 0 21 -8 23 -32 2 -21 8 -33 18 -33 10 0 16 12 18 33 2 19
9 32 17 32 7 0 15 6 17 12 3 9 9 8 22 -5 10 -9 13 -17 7 -17 -15 0 -14 -57 2
-64 6 -3 3 -5 -8 -3 -14 2 -22 12 -26 37 -6 34 -14 17 -11 -22 1 -14 -6 -18
-32 -18 -35 0 -46 13 -46 51 0 10 -4 19 -10 19 -5 0 -10 -16 -10 -35 0 -48
-17 -44 -22 5 -4 47 6 70 30 69 10 0 12 -3 5 -6z m548 -2 c-7 -5 -10 -14 -7
-20 4 -6 2 -11 -3 -11 -7 0 -9 -14 -5 -35 3 -22 1 -35 -5 -35 -6 0 -11 16 -11
35 0 19 -4 35 -10 35 -5 0 -2 9 7 20 10 11 24 20 33 20 12 0 13 -2 1 -9z m102
2 c-25 -3 -33 -9 -33 -24 0 -14 7 -19 28 -20 l27 -2 -27 -4 c-19 -3 -28 -10
-28 -23 0 -13 9 -20 28 -23 22 -3 20 -4 -10 -6 l-38 -1 0 55 0 55 43 -2 c36
-1 38 -2 10 -5z m1047 -8 c0 -9 9 -15 25 -15 14 0 26 -3 26 -7 6 -37 5 -73 -2
-73 -4 0 -9 15 -11 33 -2 20 -8 32 -18 32 -10 0 -16 -12 -18 -32 -5 -54 -22
-37 -22 22 0 30 5 55 10 55 6 0 10 -7 10 -15z m537 -11 c15 -24 15 -29 2 -53
-19 -34 -61 -39 -88 -12 -26 26 -26 46 -1 71 28 28 66 26 87 -6z m-2511 1 c9
-8 11 -15 5 -15 -15 0 -14 -57 2 -64 6 -3 3 -5 -8 -3 -14 2 -22 12 -25 37 -6
34 -3 60 7 60 2 0 11 -7 19 -15z m1615 8 c5 -58 2 -93 -7 -93 -11 0 -23 68
-16 89 4 12 22 15 23 4z m320 0 c5 -58 2 -93 -7 -93 -11 0 -23 68 -16 89 4 12
22 15 23 4z m-413 -34 c15 -1 15 -2 0 -6 -10 -2 -19 -12 -19 -21 -1 -15 -2
-15 -6 1 -2 9 -12 18 -21 18 -15 1 -15 2 1 6 9 2 18 12 18 21 1 15 2 15 6 0 2
-10 12 -19 21 -19z m-1922 9 c5 -7 9 -24 9 -38 0 -21 -5 -25 -30 -25 -39 0
-43 36 -5 45 15 4 20 9 13 13 -6 4 -19 4 -29 0 -12 -4 -15 -3 -10 5 9 16 41
15 52 0z m99 -28 c0 -31 -3 -35 -27 -38 -16 -2 -28 -9 -28 -18 0 -8 -4 -14
-10 -14 -5 0 -10 25 -10 56 l0 55 38 -3 c35 -3 37 -5 37 -38z m35 0 c0 -22 -4
-40 -10 -40 -5 0 -10 18 -10 40 0 22 5 40 10 40 6 0 10 -18 10 -40z m88 -2 c2
-22 -1 -38 -7 -38 -6 0 -11 16 -11 36 0 45 -24 42 -28 -4 -5 -46 -22 -39 -22
9 0 39 1 40 33 37 29 -3 32 -6 35 -40z m90 -10 c-3 -47 -6 -53 -27 -56 -13 -2
-28 2 -35 8 -8 9 -4 10 17 5 16 -5 27 -3 27 3 0 6 -10 12 -22 14 -15 2 -24 11
-26 26 -6 38 5 52 38 52 l31 0 -3 -52z m256 46 c9 -3 16 -15 16 -25 0 -15 -7
-19 -31 -19 -19 0 -28 -4 -23 -11 3 -6 17 -8 31 -4 16 4 22 2 18 -5 -9 -15
-51 -12 -65 5 -10 12 -10 21 -2 40 12 25 27 30 56 19z m276 -30 c0 -45 24 -42
28 4 5 46 22 39 22 -9 0 -39 -1 -40 -32 -37 -30 3 -33 6 -36 41 -2 21 1 37 7
37 6 0 11 -16 11 -36z m98 23 c-9 -7 -18 -26 -21 -42 -3 -24 -4 -21 -6 13 -1
37 1 42 22 42 20 -1 20 -2 5 -13z m92 -6 c15 -29 13 -31 -21 -31 -19 0 -28 -4
-23 -11 3 -6 15 -8 27 -5 14 3 17 2 9 -6 -18 -18 -62 -1 -62 25 0 45 50 65 70
28z m130 4 c26 -32 -13 -81 -47 -59 -35 22 -23 74 17 74 10 0 23 -7 30 -15z
m232 3 c-7 -7 -12 -25 -12 -40 0 -15 -4 -28 -10 -28 -5 0 -10 18 -10 40 0 35
3 40 22 40 17 0 19 -3 10 -12z m86 -31 c3 -38 3 -38 -30 -35 -25 2 -33 8 -33
23 0 13 8 21 23 23 12 2 22 8 22 14 0 6 -9 8 -20 5 -11 -3 -20 -1 -20 5 0 5
12 8 28 6 23 -3 27 -8 30 -41z m77 33 c4 -7 -2 -9 -19 -4 -15 3 -26 2 -26 -4
0 -5 12 -13 26 -16 17 -5 24 -12 22 -24 -4 -20 -46 -29 -62 -12 -8 9 -4 10 17
5 34 -9 36 8 2 23 -16 7 -23 17 -19 27 7 17 49 21 59 5z m123 -32 c2 -22 -1
-38 -7 -38 -6 0 -11 17 -11 38 -1 35 -2 36 -15 18 -8 -11 -16 -29 -16 -40 -1
-12 -4 -7 -8 12 -8 43 -25 46 -29 5 -5 -47 -22 -41 -22 7 l0 40 53 -2 52 -3 3
-37z m44 10 c2 -18 8 -33 13 -33 6 0 11 15 13 33 5 46 22 40 22 -9 0 -39 -1
-40 -32 -37 -30 3 -33 6 -36 41 -2 20 1 37 7 37 5 0 11 -15 13 -32z m123 22
c4 -7 -2 -9 -19 -4 -15 3 -26 2 -26 -4 0 -5 12 -13 26 -16 17 -5 24 -12 22
-24 -4 -20 -46 -29 -62 -12 -8 9 -4 10 17 5 34 -9 36 8 2 23 -16 7 -23 17 -19
27 7 17 49 21 59 5z m255 -5 c26 -32 -13 -81 -47 -59 -35 22 -23 74 17 74 10
0 23 -7 30 -15z m100 -28 c0 -24 -5 -48 -12 -55 -14 -14 -58 -16 -58 -3 0 5 8
7 19 4 10 -3 22 0 25 6 4 6 -1 11 -11 11 -23 0 -43 19 -43 40 0 24 21 40 52
40 26 0 28 -3 28 -43z m74 37 c9 -3 16 -15 16 -25 0 -15 -7 -19 -31 -19 -19 0
-28 -4 -23 -11 3 -6 17 -8 31 -4 16 4 22 2 18 -5 -9 -15 -51 -12 -65 5 -10 12
-10 21 -2 40 12 25 27 30 56 19z m236 -13 c15 -29 13 -31 -21 -31 -19 0 -28
-4 -23 -11 3 -6 15 -8 27 -5 14 3 17 2 9 -6 -18 -18 -62 -1 -62 25 0 45 50 65
70 28z m52 7 c-7 -7 -12 -25 -12 -40 0 -15 -4 -28 -10 -28 -5 0 -10 18 -10 40
0 35 3 40 22 40 17 0 19 -3 10 -12z m495 -15 l10 -28 11 28 c7 16 19 27 29 26
10 0 13 -3 6 -5 -7 -3 -17 -21 -23 -40 -6 -19 -18 -34 -25 -34 -11 0 -35 48
-35 71 0 19 17 7 27 -18z m490 4 c26 0 40 -2 31 -6 -17 -6 -16 -7 2 -19 17
-10 20 -10 20 5 0 17 49 49 51 35 8 -67 -7 -95 -22 -41 l-7 24 -1 -26 c-1 -23
-5 -26 -38 -27 -28 0 -33 2 -18 7 19 8 19 8 -2 19 -18 10 -22 9 -26 -8 -3 -14
-14 -20 -31 -20 -14 0 -26 5 -26 10 0 6 -12 10 -27 9 -25 0 -26 -1 -8 -10 18
-8 18 -8 -5 -6 -17 1 -26 10 -30 27 l-6 25 -7 -27 c-8 -31 -27 -38 -27 -10 -1
15 -2 15 -15 -2 -17 -23 -21 -21 -30 19 -6 29 -6 29 9 11 14 -17 16 -18 16 -3
0 20 16 23 23 5 4 -9 8 -10 14 -3 11 15 63 17 79 4 11 -9 14 -7 14 12 0 18 3
20 9 10 6 -9 26 -14 58 -14z m-425 -27 c3 -16 1 -30 -4 -30 -4 0 -8 14 -8 30
0 17 2 30 4 30 2 0 6 -13 8 -30z m66 18 c9 -9 12 -9 12 3 1 10 5 9 15 -5 13
-17 15 -18 15 -3 0 20 16 23 24 5 5 -10 7 -10 12 0 12 25 23 11 13 -18 -12
-33 -29 -40 -29 -12 -1 16 -1 16 -14 0 -16 -22 -26 -23 -26 -2 0 11 -5 14 -16
10 -9 -3 -23 -6 -32 -7 -10 -1 -7 -4 8 -9 l25 -8 -26 -1 c-30 -1 -46 24 -28
45 14 17 31 18 47 2z m535 -2 c7 -18 -1 -26 -27 -27 -18 -1 -18 -2 4 -9 22 -7
23 -8 4 -9 -27 -1 -46 21 -38 43 8 20 50 21 57 2z m-1023 -26 c0 -5 -7 -10
-15 -10 -8 0 -15 5 -15 10 0 6 7 10 15 10 8 0 15 -4 15 -10z"/>
<path d="M4560 3665 c0 -8 5 -15 10 -15 6 0 10 7 10 15 0 8 -4 15 -10 15 -5 0
-10 -7 -10 -15z"/>
<path d="M4657 3673 c-12 -11 -8 -40 7 -52 21 -18 50 14 36 40 -11 19 -31 25
-43 12z"/>
<path d="M4729 3528 c-11 -38 2 -58 27 -38 11 10 12 16 3 26 -10 12 -28 19
-30 12z"/>
<path d="M4896 3494 c-10 -25 -7 -34 9 -34 8 0 15 9 15 19 0 26 -16 35 -24 15z"/>
<path d="M5102 3318 c-16 -16 -15 -33 4 -48 22 -19 54 12 38 37 -14 22 -27 26
-42 11z"/>
<path d="M4330 3109 c0 -36 3 -40 21 -37 12 2 28 13 36 24 12 19 12 24 -2 38
-9 9 -25 16 -36 16 -16 0 -19 -7 -19 -41z"/>
<path d="M4643 3110 c-27 -68 -27 -70 11 -70 l35 0 -13 33 c-7 17 -16 39 -19
47 -3 11 -7 8 -14 -10z"/>
<path d="M4944 2826 c-9 -24 4 -48 23 -44 12 2 18 12 18 28 0 29 -32 41 -41
16z"/>
<path d="M5062 2829 c2 -6 8 -10 13 -10 5 0 11 4 13 10 2 6 -4 11 -13 11 -9 0
-15 -5 -13 -11z"/>
<path d="M5297 2826 c-10 -26 4 -47 27 -44 15 2 21 10 21 28 0 29 -38 41 -48
16z"/>
<path d="M4626 2815 c-3 -9 0 -15 9 -15 16 0 20 16 6 24 -5 3 -11 -1 -15 -9z"/>
<path d="M4736 2654 c-18 -18 -22 -104 -6 -135 6 -10 19 -19 30 -19 27 0 40
30 40 88 0 35 -5 54 -18 65 -23 21 -27 21 -46 1z"/>
<path d="M5720 2621 c0 -34 12 -45 39 -36 43 13 31 65 -15 65 -20 0 -24 -5
-24 -29z"/>
<path d="M5486 2596 c-20 -49 -21 -46 14 -46 33 0 36 9 16 55 l-13 30 -17 -39z"/>
<path d="M3887 1424 c-17 -18 -6 -35 21 -32 16 2 27 9 27 18 0 16 -36 26 -48
14z"/>
<path d="M5302 1478 c-20 -20 -14 -28 23 -28 19 0 35 4 35 8 0 12 -22 32 -35
32 -6 0 -16 -5 -23 -12z"/>
<path d="M5662 1478 c-20 -20 -14 -28 23 -28 19 0 35 4 35 8 0 12 -22 32 -35
32 -6 0 -16 -5 -23 -12z"/>
<path d="M5945 1421 c-10 -17 4 -31 31 -31 19 0 25 5 22 18 -4 19 -43 29 -53
13z"/>
<path d="M6310 1460 c-15 -28 4 -60 35 -60 15 0 26 7 30 20 10 32 -4 60 -30
60 -14 0 -29 -9 -35 -20z"/>
<path d="M6148 1103 c-21 -5 -22 -11 -5 -46 6 -15 19 -27 28 -27 18 0 49 31
49 48 0 21 -17 13 -25 -10 -6 -20 -8 -20 -12 -5 -2 9 -9 17 -15 17 -5 0 -8 7
-4 15 3 8 4 14 3 14 -1 -1 -10 -3 -19 -6z"/>
<path d="M3265 1050 c-3 -6 1 -13 10 -16 19 -8 30 0 20 15 -8 14 -22 14 -30 1z"/>
<path d="M3354 1076 c-8 -22 3 -49 19 -43 6 2 12 14 12 27 0 27 -22 39 -31 16z"/>
<path d="M3567 1075 c-9 -22 3 -46 22 -43 10 2 16 13 16 28 0 28 -29 40 -38
15z"/>
<path d="M3837 1083 c-14 -13 -6 -23 19 -23 22 0 25 2 14 15 -14 16 -23 19
-33 8z"/>
<path d="M4297 1084 c-13 -13 -7 -24 14 -24 11 0 19 5 17 12 -5 14 -22 21 -31
12z"/>
<path d="M4424 1076 c-8 -22 3 -49 19 -43 6 2 12 14 12 27 0 27 -22 39 -31 16z"/>
<path d="M4740 1045 c0 -8 7 -15 15 -15 8 0 15 7 15 15 0 8 -7 15 -15 15 -8 0
-15 -7 -15 -15z"/>
<path d="M5364 1076 c-8 -22 3 -49 19 -43 6 2 12 14 12 27 0 27 -22 39 -31 16z"/>
<path d="M5454 1076 c-8 -22 3 -49 19 -43 6 2 12 14 12 27 0 27 -22 39 -31 16z"/>
<path d="M5547 1083 c-14 -13 -6 -23 19 -23 22 0 25 2 14 15 -14 16 -23 19
-33 8z"/>
<path d="M5777 1084 c-13 -13 -7 -24 14 -24 11 0 19 5 17 12 -5 14 -22 21 -31
12z"/>
<path d="M6735 1060 c-3 -5 1 -10 9 -10 9 0 16 5 16 10 0 6 -4 10 -9 10 -6 0
-13 -4 -16 -10z"/>
<path d="M6805 1060 c-7 -12 2 -30 16 -30 5 0 9 9 9 20 0 21 -15 27 -25 10z"/>
<path d="M6460 1060 c0 -5 7 -10 15 -10 8 0 15 5 15 10 0 6 -7 10 -15 10 -8 0
-15 -4 -15 -10z"/>
<path d="M6995 1060 c-3 -5 1 -10 9 -10 9 0 16 5 16 10 0 6 -4 10 -9 10 -6 0
-13 -4 -16 -10z"/>
</g>
</svg>
